<svg xmlns="http://www.w3.org/2000/svg" viewBox="0 0 256 256" role="img" aria-labelledby="title desc">
  <title id="title">Mion Crest</title>
  <desc id="desc">Abstract wave crest inspired by the artist Mion</desc>
  <defs>
    <radialGradient id="mionGlow" cx="50%" cy="38%" r="70%">
      <stop offset="0%" stop-color="#ffd9ff" />
      <stop offset="45%" stop-color="#8aa3ff" />
      <stop offset="100%" stop-color="#1b1240" />
    </radialGradient>
    <linearGradient id="mionWave" x1="0%" y1="0%" x2="100%" y2="100%">
      <stop offset="0%" stop-color="#a0f5ff" />
      <stop offset="50%" stop-color="#7a74ff" />
      <stop offset="100%" stop-color="#ff76c9" />
    </linearGradient>
    <filter id="softGlow" x="-20%" y="-20%" width="140%" height="140%">
      <feGaussianBlur in="SourceGraphic" stdDeviation="3" result="blur" />
      <feMerge>
        <feMergeNode in="blur" />
        <feMergeNode in="SourceGraphic" />
      </feMerge>
    </filter>
  </defs>
  <rect width="256" height="256" rx="56" fill="url(#mionGlow)" />
  <g filter="url(#softGlow)">
    <path d="M48 170c22-62 62-108 124-116 18-2 36 2 52 10-20-32-54-54-92-54-66 0-120 54-120 120 0 26 8 50 22 70 0 0 12-19 14-30z" fill="#2b174c" opacity="0.55" />
    <path d="M62 182c28-74 90-98 120-92 22 4 38 18 42 42-30-28-74-18-106 6-18 14-36 34-40 64-6 0-12-8-16-20z" fill="#100826" opacity="0.65" />
    <path d="M74 188c0-36 32-80 76-94 32-10 62 0 76 30-20-10-52-6-72 18-18 20-22 46-12 66-32 4-68-2-68-20z" fill="url(#mionWave)" />
    <path d="M94 206c0-18 16-36 34-42 16-6 32 0 42 10-16-4-30 4-34 18-4 10 0 20 6 26-20 4-48 0-48-12z" fill="#e4f4ff" opacity="0.8" />
  </g>
  <circle cx="204" cy="62" r="18" fill="#ffffff" opacity="0.85" />
  <circle cx="204" cy="62" r="11" fill="#6e8bff" opacity="0.9" />
</svg>
